<svg xmlns:dc="http://purl.org/dc/elements/1.1/" xmlns:cc="http://creativecommons.org/ns#" xmlns:rdf="http://www.w3.org/1999/02/22-rdf-syntax-ns#" xmlns:svg="http://www.w3.org/2000/svg" xmlns="http://www.w3.org/2000/svg" xmlns:xlink="http://www.w3.org/1999/xlink" id="svg90600" viewBox="0 0 1024 768" height="768px" width="1024px" version="1.1">
  <metadata id="metadata90606">
    <rdf:rdf>
      <cc:work rdf:about="">
        <dc:format>image/svg+xml</dc:format>
        <dc:type rdf:resource="http://purl.org/dc/dcmitype/StillImage"></dc:type>
      </cc:work>
    </rdf:rdf>
  </metadata>
  <defs id="defs90604"></defs>
  <linearGradient spreadMethod="pad" y2="30%" x2="-10%" y1="120%" x1="30%" id="3d_gradient2-logo-21b50aa7-6e75-4498-9cfe-150e3f2caf05">
    <stop id="stop90581" stop-opacity="1" stop-color="#ffffff" offset="0%"></stop>
    <stop id="stop90583" stop-opacity="1" stop-color="#000000" offset="100%"></stop>
  </linearGradient>
  <linearGradient gradientTransform="rotate(-30)" spreadMethod="pad" y2="30%" x2="-10%" y1="120%" x1="30%" id="3d_gradient3-logo-21b50aa7-6e75-4498-9cfe-150e3f2caf05">
    <stop id="stop90586" stop-opacity="1" stop-color="#ffffff" offset="0%"></stop>
    <stop id="stop90588" stop-opacity="1" stop-color="#cccccc" offset="50%"></stop>
    <stop id="stop90590" stop-opacity="1" stop-color="#000000" offset="100%"></stop>
  </linearGradient>
  <g id="logo-group">
    <image xlink:href="" id="container" style="display: none;" x="272" y="144" width="480" height="480" transform="translate(0 0)"></image>
    <g id="logo-center" transform="translate(104.56797361111114 0)">
      <image xlink:href="" id="icon_container" style="display: none;" x="0" y="0"></image>
      <g id="slogan" style="font-style:normal;font-weight:normal;font-size:32px;line-height:1;font-family:'Brandmark Sans 30 Color';font-variant-ligatures:none;text-align:center;text-anchor:middle" transform="translate(0 0)"></g>
      <g id="title" style="font-style:normal;font-weight:normal;font-size:72px;line-height:1;font-family:'Brandmark Sans 30 Color';font-variant-ligatures:normal;text-align:center;text-anchor:middle" transform="translate(0 0)">
        <g id="path90609" aria-label="T" transform="translate(0 212.8625) translate(50 6.61999999999999) scale(1.9444444444444444) translate(-152.95119 46.008)"> <rect x="81.92873" y="76.30783" class="c1" width="36.14697" height="9.36084" transform="translate(71.022464 -122.315831)" stroke-width="0" stroke-linejoin="miter" stroke-miterlimit="2" fill="#000000" stroke="#000000"></rect> <polygon class="c3" points="104.7549,85.66867 104.68263,122.31982 95.39357,122.31982 95.39357,95.02945 " transform="translate(71.022464 -122.315831)" stroke-width="0" stroke-linejoin="miter" stroke-miterlimit="2" fill="#000000" stroke="#000000"></polygon> </g>
        <g id="path90611" aria-label="o" transform="translate(0 212.8625) translate(116.71874999999999 22.58) scale(1.9444444444444444) translate(-187.26369 37.8)"> <path class="c1" d="M80.92067,103.45419c0-12.16907,7.27271-18.93762,19.08179-18.93762 c12.31299,0,19.08154,7.20062,19.08154,18.93762c0,12.38507-7.27271,19.29767-19.08154,19.29767 C87.68922,122.75185,80.92067,115.47921,80.92067,103.45419z M97.84206,113.46304h4.32056 c4.89624,0,8.28052-3.74432,8.28052-10.00885s-3.38428-10.00885-8.28052-10.00885h-4.32056 c-4.89624,0-8.28052,3.74432-8.28052,10.00885S92.94582,113.46304,97.84206,113.46304z" transform="translate(106.34302 -122.31657)" stroke-width="0" stroke-linejoin="miter" stroke-miterlimit="2" fill="#000000" stroke="#000000"></path> </g>
        <g id="path90613" aria-label="t" transform="translate(0 212.8625) translate(197.109375 6.480000000000004) scale(1.9444444444444444) translate(-228.60744 46.08)"> <path class="c1" d="M107.92189,122.31979h-4.32031c-6.98438,0-11.521-4.53638-11.521-11.521v-34.563h9.36084v8.64075h6.48047 v9.36084h-6.48047v16.5614c0,2.16022,0,2.16022,2.16016,2.16022h4.32031V122.31979z" transform="translate(136.52686 -122.31579)" stroke-width="0" stroke-linejoin="miter" stroke-miterlimit="2" fill="#000000" stroke="#000000"></path> </g>
        <g id="path90615" aria-label="a" transform="translate(0 212.8625) translate(231.2890527777778 22.58) scale(1.9444444444444444) translate(-246.18556 37.8)"> <path class="c1" d="M80.88426,103.45419c0-10.44092,7.1286-18.93762,17.64154-18.93762 c4.75238,0,8.4967,1.72815,11.23297,4.6084v-4.24841h9.36078v37.44324h-9.36078v-4.24835 c-2.73627,2.95227-6.48059,4.68042-11.23297,4.68042C88.01286,122.75185,80.88426,114.18313,80.88426,103.45419z M97.80571,113.46304h4.32037c4.89642,0,7.63269-3.02423,7.63269-7.84869v-4.32031c0-4.82446-2.73627-7.84869-7.63269-7.84869 h-4.32037c-4.89642,0-8.2807,3.74432-8.2807,10.00885S92.90929,113.46304,97.80571,113.46304z" transform="translate(165.3013 -122.31657)" stroke-width="0" stroke-linejoin="miter" stroke-miterlimit="2" fill="#000000" stroke="#000000"></path> </g>
        <g id="path90617" aria-label="l" transform="translate(0 212.8625) translate(311.6796777777779 6.480000000000004) scale(1.9444444444444444) translate(-287.52931 46.08)"> <path class="c1" d="M104.68117,76.2358v46.08398h-9.36084V76.2358H104.68117z" transform="translate(192.20898 -122.3158)" stroke-width="0" stroke-linejoin="miter" stroke-miterlimit="2" fill="#000000" stroke="#000000"></path> </g>
        <g id="path90619" aria-label="P" transform="translate(0 212.8625) translate(50 118.61999999999999) scale(1.9444444444444444) translate(-300.04494 46.008)"> <path class="c1" d="M82.50441,76.30783h19.9458c8.92871,0,15.04907,5.47247,15.04907,14.97729 c0,9.00079-5.68848,15.04932-15.04907,15.04932H91.86525v15.98538h-9.36084V96.97363h19.9458 c4.68018,0,5.68848-1.08011,5.68848-5.68851c0-4.68039-1.0083-5.61646-5.68848-5.61646h-19.9458V76.30783z" transform="translate(217.54053 -122.31583)" stroke-width="0" stroke-linejoin="miter" stroke-miterlimit="2" fill="#000000" stroke="#000000"></path> </g>
        <g id="path90621" aria-label="e" transform="translate(0 212.8625) translate(121.36717777777775 134.57999999999998) scale(1.9444444444444444) translate(-336.74806 37.8)"> <path class="c1" d="M80.92043,103.45419c0-12.60107,6.84058-18.93762,19.08179-18.93762 c12.24097,0,19.08154,6.33655,19.08154,18.93762v3.2403H89.92128c0.93604,4.32037,3.96033,6.76855,7.92065,6.76855h4.32043 c2.95215,0,5.32837-1.3681,6.76855-3.81635h9.43286c-1.51221,9.00079-8.35278,13.10516-18.36157,13.10516 C87.2571,122.75185,80.92043,115.91128,80.92043,103.45419z M109.65089,98.77377c-1.224-3.38428-3.96021-5.32843-7.48853-5.32843 h-4.32043c-3.52832,0-6.26453,1.94415-7.48865,5.32843H109.65089z" transform="translate(255.82763 -122.31657)" stroke-width="0" stroke-linejoin="miter" stroke-miterlimit="2" fill="#000000" stroke="#000000"></path> </g>
        <g id="path90623" aria-label="r" transform="translate(0 212.8625) translate(201.7578027777778 134.57999999999998) scale(1.9444444444444444) translate(-378.09181 37.8)"> <path class="c1" d="M99.92921,84.87655v2.80829c2.08813-2.16022,5.1123-3.16827,9.50464-3.16827v9.2168h-3.88818 c-4.53638,0-5.61646,3.16827-5.61646,8.2807v20.30573h-9.36084V84.87655H99.92921z" transform="translate(287.52344 -122.31657)" stroke-width="0" stroke-linejoin="miter" stroke-miterlimit="2" fill="#000000" stroke="#000000"></path> </g>
        <g id="path90625" aria-label="s" transform="translate(0 212.8625) translate(244.68750000000006 134.57999999999998) scale(1.9444444444444444) translate(-400.16994 37.8)"> <path class="c1" d="M83.72853,109.64669h8.64111c0,3.4563,0.43213,3.81635,6.26416,3.81635h1.15234 c6.40869,0,7.84863-0.07196,7.84863-2.88025c0-2.0882-2.37598-2.44818-8.56885-3.4563 c-7.84863-1.44012-15.3374-2.59222-15.3374-11.88104c0.07227-9.00073,6.69678-10.72888,16.05762-10.72888 c10.08105,0,15.98535,3.60028,15.98535,12.38507h-8.64062c0-2.66425-0.72021-3.74432-6.62451-3.74432h-2.44824 c-4.89648,0.07202-5.68848,0.35999-5.68848,2.08813c0,2.01624,1.94385,2.23224,8.13672,3.38434 c8.49658,1.3681,15.76904,3.31226,15.76904,11.953c0,10.15289-7.34424,12.09705-16.48926,12.09705H98.6338 C89.48927,122.67983,83.72853,118.71951,83.72853,109.64669z" transform="translate(316.44142 -122.31657)" stroke-width="0" stroke-linejoin="miter" stroke-miterlimit="2" fill="#000000" stroke="#000000"></path> </g>
        <g id="path90627" aria-label="p" transform="translate(0 212.8625) translate(314.14062500000006 134.57999999999998) scale(1.9444444444444444) translate(-435.88869 37.8)"> <path class="c1" d="M90.24513,118.07143v18.6496h-9.36084V84.87655h9.36084v4.24841 c2.73633-2.88025,6.48071-4.6084,11.23315-4.6084c10.51294,0,17.64136,8.4967,17.64136,18.93762 c0,10.72894-7.12842,19.29767-17.64136,19.29767C96.72585,122.75185,92.98146,121.0237,90.24513,118.07143z M97.87794,113.46304 h4.32031c4.89648,0,8.28076-3.74432,8.28076-10.00885s-3.38428-10.00885-8.28076-10.00885h-4.32031 c-4.89648,0-7.63281,3.02423-7.63281,7.84869v4.32031C90.24513,110.4388,92.98146,113.46304,97.87794,113.46304z" transform="translate(355.0044 -122.31656)" stroke-width="0" stroke-linejoin="miter" stroke-miterlimit="2" fill="#000000" stroke="#000000"></path> </g>
        <g id="path90629" aria-label="e" transform="translate(0 212.8625) translate(394.5312500000001 134.57999999999998) scale(1.9444444444444444) translate(-477.23244 37.8)"> <path class="c1" d="M80.92043,103.45419c0-12.60107,6.84058-18.93762,19.08179-18.93762 c12.24097,0,19.08154,6.33655,19.08154,18.93762v3.2403H89.92128c0.93604,4.32037,3.96033,6.76855,7.92065,6.76855h4.32043 c2.95215,0,5.32837-1.3681,6.76855-3.81635h9.43286c-1.51221,9.00079-8.35278,13.10516-18.36157,13.10516 C87.2571,122.75185,80.92043,115.91128,80.92043,103.45419z M109.65089,98.77377c-1.224-3.38428-3.96021-5.32843-7.48853-5.32843 h-4.32043c-3.52832,0-6.26453,1.94415-7.48865,5.32843H109.65089z" transform="translate(396.31201 -122.31657)" stroke-width="0" stroke-linejoin="miter" stroke-miterlimit="2" fill="#000000" stroke="#000000"></path> </g>
        <g id="path90631" aria-label="c" transform="translate(0 212.8625) translate(474.92187500000017 134.57999999999998) scale(1.9444444444444444) translate(-518.57619 37.8)"> <path class="c1" d="M81.28029,103.45419c0-12.60107,6.84058-18.93762,19.08167-18.93762 c10.00891,0,16.77747,4.32037,18.28955,12.38507h-9.57678c-1.44012-2.23224-3.74432-3.4563-6.55261-3.4563H98.2018 c-4.89648,0-8.28076,3.74432-8.28076,10.00885s3.38428,10.00885,8.28076,10.00885h4.32031 c2.95227,0,5.32849-1.3681,6.76868-3.81635h9.43274c-1.51208,9.00079-8.35266,13.10516-18.36157,13.10516 C87.61684,122.75185,81.28029,115.91128,81.28029,103.45419z" transform="translate(437.2959 -122.31657)" stroke-width="0" stroke-linejoin="miter" stroke-miterlimit="2" fill="#000000" stroke="#000000"></path> </g>
        <g id="path90633" aria-label="t" transform="translate(0 212.8625) translate(553.9453027777779 118.48) scale(1.9444444444444444) translate(-559.21681 46.08)"> <path class="c1" d="M107.92189,122.31979h-4.32031c-6.98438,0-11.521-4.53638-11.521-11.521v-34.563h9.36084v8.64075h6.48047 v9.36084h-6.48047v16.5614c0,2.16022,0,2.16022,2.16016,2.16022h4.32031V122.31979z" transform="translate(467.13623 -122.31579)" stroke-width="0" stroke-linejoin="miter" stroke-miterlimit="2" fill="#000000" stroke="#000000"></path> </g>
        <g id="path90635" aria-label="i" transform="translate(0 212.8625) translate(590.859375 118.48) scale(1.9444444444444444) translate(-578.20119 46.08)"> <rect x="95.32033" y="76.2358" class="c3" width="9.36084" height="5.7605" transform="translate(482.880862 -122.315802)" stroke-width="0" stroke-linejoin="miter" stroke-miterlimit="2" fill="#000000" stroke="#000000"></rect> <polygon class="c1" points="104.60915,122.31979 95.32033,122.31979 95.32033,84.87655 104.68117,84.87655 " transform="translate(482.880862 -122.315802)" stroke-width="0" stroke-linejoin="miter" stroke-miterlimit="2" fill="#000000" stroke="#000000"></polygon> </g>
        <g id="path90637" aria-label="v" transform="translate(0 212.8625) translate(615.1953027777778 135.28) scale(1.9444444444444444) translate(-590.71681 37.44)"> <path class="c1" d="M90.13722,84.87655l8.78467,28.58649h2.16016l8.78516-28.58649h9.79248l-11.521,37.44324H91.86525 l-11.521-37.44324C80.34425,84.87656,90.13722,84.87656,90.13722,84.87655z" transform="translate(510.37256 -122.31655)" stroke-width="0" stroke-linejoin="miter" stroke-miterlimit="2" fill="#000000" stroke="#000000"></path> </g>
        <g id="path90639" aria-label="e" transform="translate(0 212.8625) translate(690.6640527777777 134.57999999999998) scale(1.9444444444444444) translate(-629.52931 37.8)"> <path class="c1" d="M80.92043,103.45419c0-12.60107,6.84058-18.93762,19.08179-18.93762 c12.24097,0,19.08154,6.33655,19.08154,18.93762v3.2403H89.92128c0.93604,4.32037,3.96033,6.76855,7.92065,6.76855h4.32043 c2.95215,0,5.32837-1.3681,6.76855-3.81635h9.43286c-1.51221,9.00079-8.35278,13.10516-18.36157,13.10516 C87.2571,122.75185,80.92043,115.91128,80.92043,103.45419z M109.65089,98.77377c-1.224-3.38428-3.96021-5.32843-7.48853-5.32843 h-4.32043c-3.52832,0-6.26453,1.94415-7.48865,5.32843H109.65089z" transform="translate(548.60888 -122.31657)" stroke-width="0" stroke-linejoin="miter" stroke-miterlimit="2" fill="#000000" stroke="#000000"></path> </g>
        <g id="path90641" aria-label="V" transform="translate(0 212.8625) translate(50 245.35500000000002) scale(1.9444444444444444) translate(-670.87306 46.08)"> <path class="c1" d="M85.88966,76.23584l12.81689,37.2272h2.59229l12.81689-37.2272h9.93701l-15.84131,46.08398H91.79396 L75.95265,76.23584H85.88966z" transform="translate(594.92041 -122.31584)" stroke-width="0" stroke-linejoin="miter" stroke-miterlimit="2" fill="#000000" stroke="#000000"></path> </g>
        <g id="path90643" aria-label="o" transform="translate(0 212.8625) translate(137.22657222222216 261.455) scale(1.9444444444444444) translate(-715.73244 37.8)"> <path class="c1" d="M80.92067,103.45419c0-12.16907,7.27271-18.93762,19.08179-18.93762 c12.31299,0,19.08154,7.20062,19.08154,18.93762c0,12.38507-7.27271,19.29767-19.08154,19.29767 C87.68922,122.75185,80.92067,115.47921,80.92067,103.45419z M97.84206,113.46304h4.32056 c4.89624,0,8.28052-3.74432,8.28052-10.00885s-3.38428-10.00885-8.28052-10.00885h-4.32056 c-4.89624,0-8.28052,3.74432-8.28052,10.00885S92.94582,113.46304,97.84206,113.46304z" transform="translate(634.81177 -122.31657)" stroke-width="0" stroke-linejoin="miter" stroke-miterlimit="2" fill="#000000" stroke="#000000"></path> </g>
        <g id="path90645" aria-label="r" transform="translate(0 212.8625) translate(217.61719722222222 261.455) scale(1.9444444444444444) translate(-757.07619 37.8)"> <path class="c1" d="M99.92921,84.87655v2.80829c2.08813-2.16022,5.1123-3.16827,9.50464-3.16827v9.2168h-3.88818 c-4.53638,0-5.61646,3.16827-5.61646,8.2807v20.30573h-9.36084V84.87655H99.92921z" transform="translate(666.50782 -122.31657)" stroke-width="0" stroke-linejoin="miter" stroke-miterlimit="2" fill="#000000" stroke="#000000"></path> </g>
        <g id="path90647" aria-label="t" transform="translate(0 212.8625) translate(260.54687499999994 245.35500000000002) scale(1.9444444444444444) translate(-779.15431 46.08)"> <path class="c1" d="M107.92189,122.31979h-4.32031c-6.98438,0-11.521-4.53638-11.521-11.521v-34.563h9.36084v8.64075h6.48047 v9.36084h-6.48047v16.5614c0,2.16022,0,2.16022,2.16016,2.16022h4.32031V122.31979z" transform="translate(687.07373 -122.31579)" stroke-width="0" stroke-linejoin="miter" stroke-miterlimit="2" fill="#000000" stroke="#000000"></path> </g>
        <g id="path90649" aria-label="e" transform="translate(0 212.8625) translate(294.7265722222221 261.455) scale(1.9444444444444444) translate(-796.73244 37.8)"> <path class="c1" d="M80.92043,103.45419c0-12.60107,6.84058-18.93762,19.08179-18.93762 c12.24097,0,19.08154,6.33655,19.08154,18.93762v3.2403H89.92128c0.93604,4.32037,3.96033,6.76855,7.92065,6.76855h4.32043 c2.95215,0,5.32837-1.3681,6.76855-3.81635h9.43286c-1.51221,9.00079-8.35278,13.10516-18.36157,13.10516 C87.2571,122.75185,80.92043,115.91128,80.92043,103.45419z M109.65089,98.77377c-1.224-3.38428-3.96021-5.32843-7.48853-5.32843 h-4.32043c-3.52832,0-6.26453,1.94415-7.48865,5.32843H109.65089z" transform="translate(715.81201 -122.31657)" stroke-width="0" stroke-linejoin="miter" stroke-miterlimit="2" fill="#000000" stroke="#000000"></path> </g>
        <g id="path90651" aria-label="x" transform="translate(0 212.8625) translate(365.2406249999999 262.155) scale(1.9444444444444444) translate(-832.99681 37.44)"> <path class="c1" d="M93.01759,84.87655l6.98438,10.65698l6.98486-10.65698h11.23291l-11.88135,18.21759l13.0332,19.22565 h-11.37695l-7.92041-11.66498l-8.06494,11.66498H80.63234l13.17725-19.00964l-12.0249-18.43359 C81.78468,84.87656,93.01759,84.87656,93.01759,84.87655z" transform="translate(752.36447 -122.31655)" stroke-width="0" stroke-linejoin="miter" stroke-miterlimit="2" fill="#000000" stroke="#000000"></path> </g>
                            </g>
      <image xlink:href="" id="icon" style="display: none;" x="0" y="0"></image>
    </g>
  </g>
</svg>